<svg id="Capa_1" enable-background="new 0 0 512 512" height="512" viewBox="0 0 512 512" width="512" xmlns="http://www.w3.org/2000/svg"><g><path d="m150.618 260.321h-19.941c-34.137 0-61.811-27.674-61.811-61.811-33.767 0-61.14-27.373-61.14-61.14v-4.96h61.14c-33.767 0-61.14-27.373-61.14-61.14v-4.96l61.14-.211c-33.766.001-61.14-27.373-61.14-61.139v-4.96h71.08c34.137 0 61.811 27.674 61.811 61.811v103.772z" fill="#ffe477"/><path d="m361.382 260.321h19.941c34.137 0 61.811-27.674 61.811-61.811 33.767 0 61.14-27.373 61.14-61.14v-4.96h-61.14c33.767 0 61.14-27.373 61.14-61.14v-4.96l-61.14-.211c33.767 0 61.14-27.373 61.14-61.14v-4.959h-71.08c-34.137 0-61.811 27.674-61.811 61.811v103.772z" fill="#ffb655"/><path d="m140.618 288.363v68.622l115.382 22.015 10-82.667-10-89.593h-24.052z" fill="#f2bb88"/><path d="m256 206.74v172.26l115.383-22.015v-150.245z" fill="#e3a76f"/><g><path d="m90.141 422.374c-34.137 0-61.811 27.674-61.811 61.811v27.815h227.67l10-35.667-10-53.959z" fill="#9b9696"/><path d="m483.67 484.185c0-34.137-27.674-61.811-61.811-61.811h-165.859v89.626h227.67z" fill="#736e6e"/></g><path d="m226.259 332.329-22.208 24.656h-63.433v140.255h4.329c29.471 0 53.362-23.891 53.362-53.362v53.362h4.329c29.47 0 53.36-23.889 53.362-53.357l10-58.678-10-52.875h-29.741z" fill="#fff5f5"/><path d="m307.949 356.985-22.208-24.656h-29.741v111.553c0-.002 0-.003 0-.005 0 29.471 23.891 53.362 53.362 53.362h4.329v-53.362c0 29.471 23.891 53.362 53.362 53.362h4.329v-140.254z" fill="#ebe1dc"/><g><path d="m280.052 258.363h45.665v30h-45.665z" fill="#c48958"/></g><path d="m226.259 383.953v30h29.741l10-15-10-15z" fill="#9b9696"/><path d="m231.948 196.74v91.623h-91.33v-81.623z" fill="#464141"/><g><path d="m140.618 165.583v51.157h69.477l24.239-81.693-24.242-75.352c-40.882 17.748-69.474 58.479-69.474 105.888z" fill="#9b9696"/><path d="m371.383 165.583c0-47.409-28.593-88.139-69.474-105.888l-23.993 70.466 23.989 86.58h69.477v-51.158z" fill="#736e6e"/><path d="m210.095 59.702v157.038h45.905l10-91.74-10-74.8c-16.315 0-31.836 3.394-45.905 9.502z" fill="#736e6e"/><path d="m301.905 59.702c-14.069-6.108-29.589-9.502-45.905-9.502v166.54h45.905z" fill="#464141"/></g><path d="m256 383.953h29.741v30h-29.741z" fill="#736e6e"/></g></svg>